<!DOCTYPE svg PUBLIC "-//W3C//DTD SVG 1.1//EN" "http://www.w3.org/Graphics/SVG/1.1/DTD/svg11.dtd">
<!-- Uploaded to: SVG Repo, www.svgrepo.com, Transformed by: SVG Repo Mixer Tools -->
<svg fill="#ffffff" height="800px" width="800px" version="1.1" id="Capa_1" xmlns="http://www.w3.org/2000/svg" xmlns:xlink="http://www.w3.org/1999/xlink" viewBox="0 0 244 244" xml:space="preserve" stroke="#ffffff">
<g id="SVGRepo_bgCarrier" stroke-width="0"/>
<g id="SVGRepo_tracerCarrier" stroke-linecap="round" stroke-linejoin="round"/>
<g id="SVGRepo_iconCarrier"> <path d="M0,49.074v130h30.5v15.852h50.668v-15.852h81.666v15.852H213.5v-15.852H244v-130H0z M224,159.074H20v-90h204V159.074z M74.209,97.574h-9.834v-15h24.834v62.834h-15V97.574z M41.627,97.574h-9.834v-15h24.834v62.834h-15V97.574z M162.791,82.574h-38.83 v63h38.83V82.574z M147.791,130.574h-8.83v-33h8.83V130.574z M209.709,82.574h-38.83v63h38.83V82.574z M194.709,130.574h-8.83v-33 h8.83V130.574z M112.875,105.824h-15v-15h15V105.824z M112.875,137.324h-15v-15h15V137.324z"/> </g>
</svg>